<?xml version="1.0" standalone="no"?><!DOCTYPE svg PUBLIC "-//W3C//DTD SVG 1.1//EN" "http://www.w3.org/Graphics/SVG/1.1/DTD/svg11.dtd"><svg t="1761265391288" class="icon" viewBox="0 0 1024 1024" version="1.1" xmlns="http://www.w3.org/2000/svg" p-id="5172" xmlns:xlink="http://www.w3.org/1999/xlink" width="200" height="200"><path d="M363.370496 878.227606a11.22218 11.22218 0 0 1-10.266686-15.716902c0.185249-0.438747 20.474872-48.213449 69.400067-246.556462 0-0.185249 0.087749-0.370498 0.136499-0.555747 53.410167-211.856429 47.989201-327.04221 34.027288-386.36084-14.42991-61.307618-40.491497-76.049526-42.031988-76.907521a11.095431 11.095431 0 0 1-1.150492-0.604496c-1.949988 0.974994-7.312454 4.640971-15.804652 18.105637-7.127206 11.30018-11.543928 25.964088-16.652896 42.899733-8.579946 28.547822-19.30488 63.988851-48.671696 97.275143a11.19293 11.19293 0 0 1-4.767721 3.295479c-82.055488 31.112056-132.803922 60.781121-142.904859 83.547229a16.223899 16.223899 0 0 1-3.948725 5.927963c-5.615965 8.882195-28.274824 62.126613-26.129837 97.986889 1.862238 30.936557-0.974994 106.274337-67.33308 137.191395-53.458917 24.940344-67.186831 30.263811-67.771827 30.47831a11.21243 11.21243 0 1 1-8.0242-20.92337c0.116999 0 14.020413-5.479466 66.299586-29.873814 51.947676-24.248099 56.393648-82.786734 54.424161-115.527029-1.481991-24.540597 6.317961-53.312668 13.123418-73.124544A298.416389 298.416389 0 0 1 156.398787 400.977832c3.558728-7.653702 5.849964-11.699927 8.0437-13.991162 5.060218-11.348929 21.332867-43.777227 152.762047-93.921165 24.901345-29.045069 34.124787-59.786627 42.353736-86.979207 5.352717-17.764389 10.403185-34.544035 19.15863-48.418198 11.699927-18.524884 22.736858-27.953076 33.80304-28.820821a19.012381 19.012381 0 0 1 13.074668 3.714727c7.799951 4.221724 35.616528 23.292605 51.674678 86.247962 10.081437 39.575003 13.503666 89.163194 10.188686 147.370331-4.094974 71.554804-18.485885 156.671773-42.665734 253.108422 6.512959 70.092313 49.334692 117.330768 80.680747 151.904053 12.947919 14.283661 23.087856 25.466841 28.499072 35.831026 90.674435-2.554484 146.249088-19.694877 177.224645-33.842039 34.124787-15.599903 46.156212-30.926807 46.273212-31.082806l-0.06825 0.087749 18.056887 13.298918c-2.115737 2.876232-54.063413 70.443311-248.50645 74.099537a10.997931 10.997931 0 0 1-2.768982-0.233998 11.21243 11.21243 0 0 1-8.570197-8.326448c-2.076737-7.565953-14.069162-20.79662-26.753833-34.797533-24.677096-27.22183-59.123631-65.217343-76.459023-117.516017-41.095994 161.595492-58.002388 201.033996-58.762884 202.798735a11.21243 11.21243 0 0 1-10.266686 6.717708zM181.173382 401.952826z m-12.499422-17.949638h-0.097499z m242.19824-234.700536z" p-id="5173"></path><path d="M461.601134 1018.899729a11.20268 11.20268 0 0 1-9.457442-5.177218c-59.835377-93.657916-57.085894-166.606961-52.649671-195.271782-2.924982 1.66724-6.893207 4.78722-11.855926 10.422685a11.21243 11.21243 0 0 1-16.838145-14.810158c11.553678-13.133168 22.902607-19.792377 33.734789-19.792376a22.961107 22.961107 0 0 1 16.282399 6.38621 11.21243 11.21243 0 0 1 3.13948 10.354435q-0.107249 0.516747-0.263248 1.033494c-0.419247 1.462491-5.732964 21.069619-2.924982 53.039669 2.690983 30.605059 13.591415 79.140256 50.280437 136.577148a11.21243 11.21243 0 0 1-9.437942 17.247643z m136.596648-0.506997a11.22218 11.22218 0 0 1-11.046681-13.230668c6.025462-32.915795 38.53176-68.737071 41.056993-71.476804l0.438748-0.458247 0.448497-0.419247c5.518466-5.089468 9.369692-24.238349 3.665977-62.857858a487.662709 487.662709 0 0 0-11.612177-54.59966 11.21243 11.21243 0 0 1 21.566865-6.142461 501.800121 501.800121 0 0 1 12.197174 57.251642c6.37646 43.026482 2.924982 70.072813-10.422685 82.650235-3.032231 3.353979-30.575809 34.397785-35.29478 60.098625a11.21243 11.21243 0 0 1-10.997931 9.184443z m-361.966493-0.243749a11.15393 11.15393 0 0 1-5.547715-1.47224c-25.184093-14.36166-70.199562-37.576266-83.644729-38.726759-15.775402-1.345492-24.257849-12.382423-25.115843-23.204855C65.675603 937.887484 10.256948 885.920308 7.799964 883.599823a11.21243 11.21243 0 0 1 15.404903-16.292149c0.575246 0.536247 56.1304 52.591172 108.019577 66.777334 4.923719-3.812226 11.699927-6.093712 20.221374-5.615965 13.649915 0.770245 21.176868 5.040719 27.22183 8.472697 5.118718 2.924982 7.936451 4.504472 14.624909 4.065725a111.022558 111.022558 0 0 1 39.731002 4.67022l0.974994 0.409498a191.342557 191.342557 0 0 0 33.305792 11.768176c-7.068706-6.39596-20.240874-16.896645-44.703471-33.422791-24.989094-16.886895-49.227443-31.580053-49.471191-31.726302l-0.185249-0.116999a146.580586 146.580586 0 0 1-15.200156-11.28068c-7.9462-6.824957-18.281136-17.218393-16.194649-29.045069 0.974994-5.713464 5.099218-13.162418 18.875883-16.165399 25.827589-5.645215 62.399611 17.374392 86.676959 32.613546 5.849964 3.704977 13.162418 8.277698 15.599903 9.291692 6.298461 1.062743 16.925894 5.498966 33.413042 12.489673 6.259461 2.661733 13.513416 5.742714 18.914882 7.799951-4.055975-12.080175-16.184899-32.340548-48.652197-64.798096-15.941151-15.9899-23.234105-51.29443-22.629609-65.66584 0.370498-9.116193 5.352717-13.649915 8.297198-15.599903 8.882195-5.723214 20.153124-2.057237 23.770352-0.623996a11.18318 11.18318 0 0 1 4.952969 3.704977l74.284787 94.49641c5.966963 4.87497 32.623297 27.953076 41.310492 57.622141a11.238755 11.238755 0 1 1-21.547365 6.39596c-7.585453-25.886089-34.417285-46.916707-34.680534-47.131206l-1.949988-1.949988-71.915551-91.493429c1.091993 12.587172 7.312454 35.694527 16.0094 44.391473 24.842845 24.842845 57.602641 61.141869 57.017644 91.064432a13.035669 13.035669 0 0 1-2.924982 9.70119c-5.898713 7.039456-15.726652 4.87497-19.431628 4.065724-5.547715-1.218742-14.868657-5.089468-29.561816-11.329429-9.818189-4.172974-24.657596-10.471435-28.362573-11.017431-5.030969-0.682496-10.607934-4.085225-23.858101-12.421423-18.349386-11.534178-52.318174-32.896295-69.390318-29.795814 3.734227 4.397223 11.534178 10.919932 19.061132 15.687652 1.881738 1.140743 29.191318 17.764389 55.652652 35.899276 16.194649 11.105181 28.976819 20.640621 38.024763 28.343073 13.152668 11.25143 21.313367 20.79662 18.378636 30.809808a17.033144 17.033144 0 0 1-9.496441 10.773683c-8.238699 3.763477-20.474872 2.564234-39.653003-3.899976-10.656684-3.578228-19.967875-7.673202-22.42486-8.774945a90.830434 90.830434 0 0 0-30.52706-3.383229c-13.386667 0.877495-21.020869-3.461228-27.14383-6.932207-5.040719-2.856732-9.028444-5.118718-17.432892-5.596465-3.324729-0.185249-5.801214 0.682496-5.898713 2.066987s1.823239 2.427735 4.670221 2.671484c22.307861 1.949988 81.255993 34.982782 92.848671 41.59324a11.21243 11.21243 0 0 1-5.567215 20.95262z m26.783083-140.038376z m744.407858 60.995619a11.16368 11.16368 0 0 1-6.902957-2.378985c-54.268162-42.470735-116.375274-32.174799-116.999271-32.0578a11.17343 11.17343 0 0 1-8.648196-2.057237c-24.930595-17.59864-42.100237-55.272405-51.050681-111.978052a521.494998 521.494998 0 0 1-6.152212-78.214012A11.21243 11.21243 0 0 1 828.891093 701.27596h0.126749a11.21243 11.21243 0 0 1 11.095431 11.329429c-0.380248 37.147268 7.029706 137.747141 44.605972 169.249194 17.481641-1.949988 76.381024-4.514222 129.674191 37.166769a11.21243 11.21243 0 0 1-6.912707 20.045875z m-814.909668-559.646509a11.22218 11.22218 0 0 1-11.017432-13.386667c16.886895-85.682466 27.475329-133.574167 36.572022-165.310219 11.30018-39.448254 21.167118-56.325399 35.177781-60.176625 15.268405-4.202224 27.797077 9.749939 32.516047 15.024657 14.39091 16.03865 25.349842 46.341461 32.584297 90.069938a571.112438 571.112438 0 0 1 6.600709 59.620878 11.225105 11.225105 0 0 1-22.42486 1.062743c-1.355242-28.93782-10.022937-109.716066-33.422792-135.787403-6.36671-7.097956-9.320942-8.160699-9.974188-8.326448-0.565496 0.311998-3.090731 2.057237-6.941956 9.749939-4.046225 8.03395-8.287448 19.987375-12.97717 36.542772-8.823695 31.199805-19.16838 78.077513-35.675027 161.848991a11.21243 11.21243 0 0 1-11.007681 9.047944zM448.789713 186.576669a11.21243 11.21243 0 0 1-9.067443-17.725389c0.848245-1.189493 21.245118-29.444816 61.015119-60.020626 36.591522-28.148074 97.353143-63.657353 178.833385-72.919795 154.741285-17.549891 246.809961 32.779296 281.470995 51.742927l1.140743 0.623996c34.534285 18.885632 54.004913 45.064219 54.814158 46.175713a11.215355 11.215355 0 1 1-18.076387 13.279417c-0.155999-0.214499-17.549891-23.399854-47.501704-39.779752l-1.150493-0.623996c-32.954794-18.027638-120.489749-65.929089-268.123328-49.139694-76.351774 8.687196-133.359668 42.002738-167.698954 68.425073-37.157018 28.557572-56.247399 55.009157-56.432648 55.272406a11.20268 11.20268 0 0 1-9.223443 4.68972zM874.940056 626.016179a11.17343 11.17343 0 0 1-3.392979-0.526497 101.223869 101.223869 0 0 1-14.936907-6.044962c-34.826783-14.956407-65.197843-33.968788-90.430686-56.617897a261.620118 261.620118 0 0 1-55.974401-70.58956 242.773486 242.773486 0 0 1-15.151405-34.124787c-3.812226 24.803845-5.586715 57.397892 1.55999 91.36668a11.26118 11.26118 0 0 1 0.243748 2.924982v0.428997a11.17343 11.17343 0 0 1-0.331498 1.793989 11.20268 11.20268 0 0 1-8.160699 7.946201 12.226424 12.226424 0 0 1-2.798232 0.321748c-0.380248 0-0.750745 0-1.121243-0.078h-0.0585a11.017431 11.017431 0 0 1-1.62824-0.321748 11.24168 11.24168 0 0 1-2.252236-0.896994 158.602261 158.602261 0 0 1-54.053663-45.532216 114.766534 114.766534 0 0 0 7.634203 17.754639 11.21243 11.21243 0 0 1-18.017888 13.142918c-32.0968-33.773789-56.686146-88.665947-57.71964-90.996183a11.21243 11.21243 0 0 1 20.474872-9.106443c0.155999 0.341248 6.35696 14.176412 16.272649 31.755552a445.308973 445.308973 0 0 1-3.548978-75.815527c0-1.257742 0.097499-2.047487 0.116999-2.300986a11.21243 11.21243 0 0 1 0.857995-3.597727 11.22218 11.22218 0 0 1 3.14923-4.231474 11.20268 11.20268 0 0 1 4.114475-2.164486 11.26118 11.26118 0 0 1 7.370954 0.458247 11.21243 11.21243 0 0 1 4.260723 3.16873 11.16368 11.16368 0 0 1 2.544734 7.799951c0 0.078 0 0.750745-0.087749 1.949988a173.15892 173.15892 0 0 0 7.361204 52.669172c9.242942 30.653809 25.856839 55.038407 49.519941 72.773546-7.000456-65.139344 12.167924-118.881009 14.020413-123.892477a11.22218 11.22218 0 0 1 21.800864 3.314979c0.155999 2.447235 2.603234 34.768283 23.926351 73.855789A236.377526 236.377526 0 0 0 768.909467 534.551999c-6.33746-9.116193-10.217936-15.482903-10.958932-16.721145a11.21243 11.21243 0 0 1 18.700384-12.353173c1.257742 1.725739 27.446079 37.147268 63.657353 61.726865C801.103766 522.978822 783.553876 442.902571 782.637381 438.641847a11.15393 11.15393 0 0 1-0.185248-3.675727 11.21243 11.21243 0 0 1 1.59899-4.572721 11.21243 11.21243 0 0 1 3.597727-3.617228 11.26118 11.26118 0 0 1 7.244205-1.618489 11.21243 11.21243 0 0 1 4.73847 1.706239 11.18318 11.18318 0 0 1 4.81647 6.756708 191.810554 191.810554 0 0 0 29.737315 60.683621 145.400843 145.400843 0 0 0 17.959388 19.987376 204.290476 204.290476 0 0 1-13.942413-19.28538 253.556919 253.556919 0 0 1-29.337567-64.554347 11.21438 11.21438 0 0 1 21.674115-5.771964 234.973535 234.973535 0 0 0 26.861082 58.714133c24.277349 37.703015 54.46316 58.002388 89.699441 60.352124a11.21243 11.21243 0 0 1 0.438747 22.37611c-38.297761 4.007225-72.529798-5.323467-100.911871-27.20233 6.746958 9.925438 14.332411 18.632134 22.756358 24.969594 0.711746 0.536247 71.788802 52.92267 131.029433 21.176868a11.21243 11.21243 0 0 1 12.275174 18.710134c-43.211731 33.949288-111.558804 11.846176-122.000989 8.170449q-2.593484-0.360748-5.157718-0.848245a11.23193 11.23193 0 0 1-1.793989 10.666433 11.24168 11.24168 0 0 1-8.774945 4.231474z m-273.300546-16.0094a11.20268 11.20268 0 0 1-2.612984-0.311998c-1.228492-0.292498-30.361311-7.585453-51.372429-42.421986-25.964088-43.055731-28.274824-107.181082-6.883457-190.582061a11.213405 11.213405 0 0 1 21.722864 5.576965c-24.725846 96.358649-11.27093 147.49708 4.367973 173.431918 15.950901 26.451585 37.157018 32.174799 37.371517 32.1748a11.21243 11.21243 0 0 1-2.593484 22.122612z" p-id="5174"></path><path d="M747.820349 746.739926a11.21243 11.21243 0 0 1-5.742715-20.85512c2.213236-1.316242 14.41041-11.134431 37.215518-75.32803 12.382423-34.846283 21.644865-68.181325 21.732615-68.512823a11.21438 11.21438 0 1 1 21.615615 5.986463c-0.097499 0.341248-9.56469 34.436785-22.210362 70.033813-23.906851 67.27458-38.210012 81.899489-46.887457 87.096207a11.16368 11.16368 0 0 1-5.723214 1.57949z" p-id="5175"></path><path d="M914.173811 875.741372a21.674115 21.674115 0 0 1-4.455722-0.448498 11.21243 11.21243 0 0 1-7.946201-15.599902l0.194999-0.409498a11.16368 11.16368 0 0 1 5.703715-5.323467 75.961776 75.961776 0 0 0 10.364185-5.313716 84.073726 84.073726 0 0 1-7.799951-5.079719c-40.754746-31.063306-49.315192-101.877115-50.767934-141.968864-8.540947 7.673202-17.267142 14.702908-21.722864 18.222636a484.493979 484.493979 0 0 1-25.349842 43.153231c-21.791114 32.818295-40.384248 49.617441-56.822646 51.34318a10.724933 10.724933 0 0 1-1.55999 0.077999 11.21243 11.21243 0 0 1-7.010206-19.792376 11.27093 11.27093 0 0 1 1.189492-0.877495c16.292148-10.949182 25.184093-36.279524 29.825064-61.580616a102.374362 102.374362 0 0 1-26.919582 14.078912 11.217305 11.217305 0 0 1-6.824957-21.371866c0.448497-0.146249 24.374848-8.09245 34.690283-25.964088 0.487497-1.033494 1.745239-3.597728 3.32473-6.395961 0.282748-6.980956 0.292498-13.064919 0.126749-17.686389a11.219255 11.219255 0 0 1 22.42486-0.799495c0 0.565496 0.272998 8.0242-0.185249 19.285379a11.20268 11.20268 0 0 1-0.253498 5.255218c-0.506997 9.018694-1.472241 19.841126-3.25648 31.258305q-1.043243 6.659208-2.339985 12.86017c10.997931-17.549891 19.002631-33.198543 19.909375-34.992532l0.185249-0.360748c1.345492-2.690983 16.184899-32.672046 23.497354-53.302918a11.21438 11.21438 0 0 1 21.137868 7.497704c-0.604496 1.706239-1.247992 3.451478-1.949988 5.235717a11.21243 11.21243 0 0 1 20.279874 7.370954 375.587158 375.587158 0 0 0 2.456984 57.446642 186.223839 186.223839 0 0 1 1.735489-20.640622 11.22218 11.22218 0 0 1 10.442185-9.749939 193.302295 193.302295 0 0 1-0.740995-25.973838 11.22998 11.22998 0 0 1 22.42486 1.247992c-0.04875 0.974994-4.377723 93.228919 52.532673 104.441349a11.25143 11.25143 0 0 1 2.710483 0.828745 11.21243 11.21243 0 0 1 4.163224 17.247642 11.19293 11.19293 0 0 1 0.974994 9.993688 109.452817 109.452817 0 0 1-6.629959 13.649915c16.418898-10.997931 29.444816-20.699121 29.600815-20.81612a11.21828 11.21828 0 0 1 13.435417 17.969138c-0.750745 0.565496-17.66689 13.162418-37.790765 26.266336a11.22218 11.22218 0 0 1-8.648196 13.718164 51.031182 51.031182 0 0 1-15.278155 0.974994c-21.157368 12.021675-32.14555 15.024656-39.077756 15.024657z m-4.124224-101.574867c5.177218 24.521097 15.843651 42.246487 31.853051 52.99092a117.07727 117.07727 0 0 0 13.883914-22.103113 45.288468 45.288468 0 0 1-21.274368-6.171711c-8.960194-5.147968-17.140393-13.425666-24.472347-24.716096z" p-id="5176"></path><path d="M852.144698 881.649835c-4.065725 0-8.404448-0.107249-13.064919-0.302248a11.21243 11.21243 0 0 1-2.378985-22.122612c7.682952-2.018237 8.872445-3.529478 12.343423-7.946201a71.418305 71.418305 0 0 1 15.473154-15.151405 11.21243 11.21243 0 0 1 13.211167 18.115387 54.820008 54.820008 0 0 0-4.007225 3.19798c14.312911-3.597728 24.813595-13.279417 45.415217-36.669522 37.118019-42.148987 68.87357-42.616984 72.364049-42.509734l-0.565497 22.42486h0.185249c-0.243748 0-24.950094 0.614246-55.155406 34.904782C903.263629 872.670141 888.950718 881.649835 852.144698 881.649835z m38.132012-69.380568a11.15393 11.15393 0 0 1-6.278961-1.949987c-41.281243-27.982325-57.924389-98.162388-58.606884-101.13612a11.22998 11.22998 0 0 1 21.878863-5.079718c0.214499 0.896994 15.443904 64.651847 49.344443 87.632453a11.21243 11.21243 0 0 1-6.298461 20.474873z m103.476105-41.924738a11.19293 11.19293 0 0 1-8.706696-4.143724c-54.46316-67.069832-55.876902-92.127175-51.811177-101.09712a11.21243 11.21243 0 0 1 21.079369 7.429454c0 2.349735 1.881738 22.561359 48.13545 79.432754a11.21243 11.21243 0 0 1-8.696946 18.281136z m-40.05275-96.075901z m0 0z m0 0z" p-id="5177"></path><path d="M851.169704 861.779459a11.21243 11.21243 0 0 1-3.15898-21.976363c9.974188-2.924982 16.896645-4.699471 19.421879-5.323467a100.843621 100.843621 0 0 0 10.871182-5.937713 11.20268 11.20268 0 0 1 8.999194-14.624909q5.693964-0.974994 11.11493-2.125487l0.740996-0.857994a38.024763 38.024763 0 0 1-2.827483-19.958126 35.372779 35.372779 0 0 1 7.175956-16.721146 11.23193 11.23193 0 0 1 6.28871-6.620208q1.64774-1.423491 3.568478-2.827483c12.206924-8.872445 18.144637-13.913163 20.90387-16.457897l2.349735-58.129137a11.22218 11.22218 0 1 1 22.42486 0.906744l-1.101743 27.23158 0.555747-0.292498a11.17343 11.17343 0 0 1 4.065724-1.121243h0.243749a11.27093 11.27093 0 0 1 2.729983 0.175499c3.363729-4.709221 7.214955-10.237436 11.056431-16.0094 19.860626-29.815314 20.387123-37.625015 20.396873-37.937014a11.21243 11.21243 0 0 1 22.42486 0c0 4.358223-1.218742 10.988181-8.365448 24.443098a11.22218 11.22218 0 0 1 7.712202 16.389648c-0.185249 0.341248-2.359485 4.309473-5.849964 10.295935a11.22218 11.22218 0 0 1 5.060219 18.212887c-0.974994 1.091993-2.544734 2.817732-4.562972 4.991969a88.2662 88.2662 0 0 1-2.642233 9.61344q0.448497 0.107249 0.896994 0.253498a11.21243 11.21243 0 0 1 7.175955 14.137412c-0.204749 0.623996-4.299723 12.86017-16.438397 27.19258 0.623996 6.824957-2.729983 22.044613-31.833552 46.955708a11.027181 11.027181 0 0 1 1.442991-0.555747c4.679971-1.60874 19.26588-11.20268 30.224812-19.28538a11.21243 11.21243 0 0 1 15.648652 15.716902 11.21243 11.21243 0 0 1-3.363729 13.864414c-16.448147 12.333673-36.308774 11.826676-39.711502 11.641427a11.21243 11.21243 0 0 1-8.774945-17.64739q-4.87497 3.899976-10.520185 8.199699a11.213405 11.213405 0 1 1-13.406166-17.978888q2.690983-2.008487 5.118718-3.899975a179.61338 179.61338 0 0 1-40.228249 9.203942 123.941227 123.941227 0 0 1-31.365555 20.474872 11.319679 11.319679 0 0 1-1.140742 0.438748q-0.516747 0.165749-1.033494 0.282748c-1.160243 0.282748-8.316698 2.047487-19.16838 5.235717a11.21243 11.21243 0 0 1-3.119981 0.428998z m69.039319-72.383549l-0.214498 0.370498 1.150493-0.409498z m-66.299586 40.228249a11.21243 11.21243 0 0 1-10.539684-7.673202 61.814615 61.814615 0 0 0-16.0484-24.657596 11.21243 11.21243 0 0 1 14.488409-17.111143 81.138994 81.138994 0 0 1 14.127662 16.730895 44.84972 44.84972 0 0 0 3.480729-15.083156 11.21243 11.21243 0 1 1 22.42486 0c0 1.121243-0.233999 27.592328-20.474873 45.073969a11.25143 11.25143 0 0 1-7.322204 2.720233z m16.799145-145.098595h-0.224248a11.21243 11.21243 0 0 1-10.997932-11.426929l0.721496-37.625015a11.21243 11.21243 0 0 1 11.20268-10.997931h0.224248A11.21243 11.21243 0 0 1 882.691257 635.951367l-0.721495 37.625015a11.21243 11.21243 0 0 1-11.21243 10.949182zM601.62976 610.006779a11.23193 11.23193 0 0 1-3.080981-0.428998c-29.922563-8.540947-54.54116-28.557572-73.124544-59.474629-14.37141-23.867851-25.184093-54.316911-32.174799-90.489185-1.715989-8.901694-3.100481-17.68639-4.241223-26.207837-6.941957 18.573634-13.172168 34.124787-13.649915 35.441029a11.23583 11.23583 0 0 1-20.84537-8.394698c0.233999-0.594746 22.961107-57.407642 30.039562-83.605728-0.584996-20.952619 0.194999-34.797533 0.263249-35.948026a11.23193 11.23193 0 0 1 22.42486 1.316242c0 0.506997-0.682496 12.908919-0.204749 31.931051a11.144181 11.144181 0 0 1 0.146249 4.874969c2.125487 62.740859 16.760145 185.93134 97.567642 208.999697a11.21243 11.21243 0 0 1-3.071231 21.995863z m165.885466-86.774459a11.20268 11.20268 0 0 1-9.320942-4.972469c-10.169187-15.180655-17.325642-26.753833-21.254868-34.397786-3.607478-7.019956-5.225967-11.758427-3.461228-16.691895a11.465928 11.465928 0 0 1 7.409954-7.107706 11.22218 11.22218 0 0 1 14.478659 10.364185c1.111493 2.661733 5.411216 11.407429 21.449867 35.35328a11.21243 11.21243 0 0 1-9.301442 17.452391z m-20.084875-41.72974z m0 0z m0 0z m0 0z m0 0z m0.760495-0.263248q-0.370498 0.146249-0.760495 0.263248c0.389998-0.146249 0.594746-0.233999 0.848245-0.331498z m0 0z m-179.681629-18.407885a11.21243 11.21243 0 0 1-10.422685-7.068706c-15.824151-39.770002-17.549891-71.827802-17.65714-75.620529a11.378179 11.378179 0 0 1 0.360748-3.548978c10.393435-42.831483 23.926351-92.419674 24.06285-92.90717a11.213405 11.213405 0 0 1 21.635115 5.908463c-0.136499 0.487497-13.298917 48.749696-23.575353 90.947433 0.409497 6.38621 2.876232 33.910289 16.01915 66.933332a11.22218 11.22218 0 0 1-10.412935 15.356155z m251.177933-24.04335a11.22218 11.22218 0 0 1-10.676183-7.799952C796.950292 393.35338 797.652288 347.353167 797.691288 345.403179a11.21243 11.21243 0 0 1 11.20268-11.007681h0.214498a11.21243 11.21243 0 0 1 11.007682 11.417178c0 0.653246-0.623996 44.410973 10.266686 78.360262a11.22218 11.22218 0 0 1-10.724933 14.624909z m-124.311724-18.427386a11.21243 11.21243 0 0 1-11.192931-11.231929 474.159043 474.159043 0 0 1 7.799952-84.219975 11.213405 11.213405 0 0 1 21.986113 4.426472 460.19713 460.19713 0 0 0-7.312455 79.822752 11.21243 11.21243 0 0 1-11.280679 11.20268z m-92.624423-7.663452h-0.448497a11.21243 11.21243 0 0 1-10.724933-11.641427c2.671483-68.249574 34.924282-111.461305 36.289274-113.265044a11.21243 11.21243 0 0 1 17.871638 13.542666c-0.458247 0.614246-29.386317 39.974751-31.755552 100.599872A11.21243 11.21243 0 0 1 602.790003 412.677759zM623.235626 1016.861992a11.21243 11.21243 0 0 1-2.252236-22.190862c1.433241-0.292498 144.513599-30.556309 254.024915-110.125563a11.21828 11.21828 0 1 1 13.211168 18.134887c-59.39663 43.153231-127.607204 71.827802-174.367913 88.275949-50.611934 17.803389-86.774459 25.349842-88.305199 25.67159a11.24168 11.24168 0 0 1-2.310735 0.233999z m-169.814691-10.724934a11.21243 11.21243 0 0 1-7.049207-19.938625c25.076844-20.250624 50.173187-31.804302 70.336062-41.076494 13.211168-6.083962 24.618596-11.329429 33.569041-17.66689 24.852595-17.60839 88.548948-51.499179 91.24968-52.93242A11.21243 11.21243 0 0 1 652.036946 894.324756c-0.653246 0.341248-65.129594 34.641534-88.812196 51.421179-10.637184 7.536703-23.516853 13.464666-37.157019 19.733877-20.026375 9.213693-42.714484 19.655877-65.62684 38.151512a11.16368 11.16368 0 0 1-7.068706 2.476485zM357.228034 749.820907a11.27093 11.27093 0 0 1-4.72872-1.043244c-65.519591-28.625821-99.985626-22.220111-102.003864-21.800864a11.114931 11.114931 0 0 1-3.422229 0.321748c-19.675377-1.189493-31.268055-6.230211-34.466035-14.966156-0.974994-2.642234-2.427735-9.340442 3.899976-16.13615-5.947463 0.653246-14.527409 0.536247-19.20738-5.976712-1.316242-1.823239-5.118718-8.414198 0.584996-17.013644a11.436679 11.436679 0 0 1 1.67699-2.027988c2.427735-2.398485 18.076387-16.974644 47.462704-25.55459 28.040825-8.189949 75.074532-12.489672 139.726378 13.435416a11.21243 11.21243 0 0 1-5.664714 21.576615c-78.253012-10.334936-119.700004 0-136.586899 6.53246a128.075201 128.075201 0 0 1 21.830114-0.974994c24.257849 0.974994 60.99562 9.369692 98.328137 44.059975a11.22218 11.22218 0 0 1-7.448953 19.597378z m-173.929165-67.021082h-0.282748a11.348929 11.348929 0 0 1-1.55024-0.146249l-24.833096-3.548978a11.21243 11.21243 0 0 1-9.51594-12.674921c0.04875-0.370498 0.126749-0.731245 0.214498-1.091993a11.16368 11.16368 0 0 1 0.399748-1.286992 11.16368 11.16368 0 0 1 2.505734-3.899976c1.881738-1.949988 24.00435-24.199349 60.274124-42.646234 49.500441-25.174343 101.984364-31.073056 151.777304-17.052644a11.21243 11.21243 0 0 1-2.866482 22.005613c-124.623723 1.949988-165.19322 53.254168-166.987209 55.574654a11.28068 11.28068 0 0 1-0.828745 1.033493 11.21243 11.21243 0 0 1-8.316698 3.704977z m-3.587978-64.963845a11.25143 11.25143 0 0 1-7.799951-3.119981 11.114931 11.114931 0 0 1-1.64774-1.949987v-0.06825a11.19293 11.19293 0 0 1-1.774489-5.986463c-0.116999-5.255217-0.350998-61.814615 41.76874-99.975876 29.844564-27.046331 72.890545-37.742015 128.016702-31.814052 6.39596-10.559184 20.084875-29.113318 39.701752-34.124787 15.473154-3.958475 25.788589 0.311998 31.716552 4.601971 8.667696 6.259461 14.127662 17.023394 14.985657 29.532566 0.565496 8.180199-2.924982 16.711396-10.061937 24.677096-9.925438 11.056431-24.930595 19.080631-36.503773 19.499879l-12.938169 0.497247c-1.101743 0.204749-10.724933 2.437485-22.337111 18.817382-1.949988 2.720233-27.046331 36.611022-99.741878 57.007895l-0.438747 0.116999c-28.060325 7.166205-56.647147 20.474872-58.099888 21.196368a11.16368 11.16368 0 0 1-4.83597 1.091993z m130.395687-106.352337c-22.678359 0-42.899732 5.225967-60.449623 15.658403-26.831833 15.931401-42.382986 40.949745-50.699684 59.162631a341.793868 341.793868 0 0 1 38.317261-12.528672c64.973595-18.271386 86.774459-47.638203 87.271706-48.271949l0.194999-0.272999a98.523136 98.523136 0 0 1 9.857189-11.836426 166.275463 166.275463 0 0 0-24.491848-1.910988z m54.979907 8.11195z m-11.963175-25.583841q6.220461 1.374741 12.577422 3.119981l11.553678-0.448497c4.80672-0.185249 14.47866-5.196718 20.679621-12.099675 3.383229-3.773226 4.475222-6.746958 4.377722-8.150949-0.399748-5.771964-2.544734-10.588434-5.752464-12.90892-2.924982-2.144987-7.351454-2.495984-13.016169-1.052993-13.649915 3.509978-25.63259 22.42486-28.908569 29.113318a11.16368 11.16368 0 0 1-1.140743 1.949988zM155.024045 815.350248a105.143344 105.143344 0 0 1-11.261179-0.604496c-24.803845-2.671483-42.217237-8.560447-57.583141-13.757164-6.015712-2.037737-11.699927-3.958475-17.345142-5.508716-15.385404-4.231474-41.846739-4.104724-50.699684-3.704977a11.22218 11.22218 0 1 1-0.974994-22.42486c1.452741-0.06825 35.782277-1.54049 57.70014 4.484972 6.269211 1.725739 12.255674 3.743977 18.583384 5.849964 14.966157 5.060218 30.43931 10.295936 52.795921 12.674921 20.162874 2.164487 35.35328-3.597728 46.448711-7.799952 6.298461-2.388735 11.28068-4.280223 16.253148-4.523972a11.22608 11.22608 0 1 1 1.111493 22.424861c-1.462491 0.078-5.849964 1.754989-9.408691 3.10048C189.977577 809.597784 174.855422 815.350248 155.024045 815.350248z" p-id="5178"></path><path d="M190.201826 963.910072a11.17343 11.17343 0 0 1-4.87497-1.101743 108.848321 108.848321 0 0 1-30.673308-22.424861c-13.318417-3.802476-27.689827-10.061937-41.71024-17.276892 9.174693 5.957213 17.744889 10.529934 24.131099 12.421423a11.21243 11.21243 0 0 1-6.36671 21.498616c-23.399854-6.932207-60.020626-35.850526-77.385267-53.205419A155.999027 155.999027 0 0 1 34.885295 881.649835c-5.372216-7.9657-10.617684-17.091643-4.757971-24.638097 2.437485-3.13948 8.774945-7.136955 16.974644-2.378985q0.370498 0.214499 0.731246 0.458247t0.672746 0.487497c1.784239 1.355242 24.277349 18.310386 51.801427 34.748784l-0.233999-0.204749A11.21243 11.21243 0 0 1 110.125575 870.924902c15.209905 3.15898 57.72939 10.276436 75.786278 6.132711a11.21243 11.21243 0 1 1 5.011469 21.859364c-8.111949 1.862238-18.846632 2.105987-29.961564 1.520991 16.487147 8.969944 31.004807 15.814401 37.049769 16.282398a30.722058 30.722058 0 0 0 23.126856-8.189949 11.21243 11.21243 0 1 1 16.477397 15.209905c-0.653246 0.701996-16.243399 17.267142-41.329992 15.346405a51.011682 51.011682 0 0 1-12.499422-3.139481 79.072007 79.072007 0 0 0 11.29043 6.659209 11.21243 11.21243 0 0 1-4.87497 21.332867z m401.375747-57.261393c-31.365554 0-63.745102-13.259917-95.139907-38.843758a11.21243 11.21243 0 0 1-10.724933 1.472241c-47.589453-17.325642-94.53541-88.948695-100.590123-104.626598a11.21438 11.21438 0 0 1 20.93312-8.053449c1.686739 4.387473 9.223442 16.935644 20.114124 31.511803-0.896994-3.012731-1.394241-5.079718-1.57949-5.908463q-0.078-0.311998-0.136499-0.633746c-1.520991-7.331954-8.375198-40.764496-8.774945-48.749696a11.225105 11.225105 0 1 1 22.42486-1.072493c0.194999 4.065725 4.143724 25.018344 7.9852 43.640727 5.284467 8.638446 33.491041 52.815421 73.73879 82.162738q-1.267492-2.076737-2.495984-4.231474a213.601668 213.601668 0 0 1-21.157368-53.995163 11.213405 11.213405 0 1 1 21.908113-4.79697 188.329826 188.329826 0 0 0 7.673202 24.1311 11.23193 11.23193 0 0 1 0.838495 0.809245c0.701996 0.750745 55.496654 58.421636 113.723291 39.926001a11.217305 11.217305 0 1 1 6.824957 21.371866 102.68636 102.68636 0 0 1-43.513978 4.055975 11.24168 11.24168 0 0 1 1.901238 1.033494h0.0585a11.17343 11.17343 0 0 1 4.874969 8.511696v0.233999a11.22218 11.22218 0 0 1-0.263248 2.993231 11.21243 11.21243 0 0 1-2.729983 5.128468 11.21243 11.21243 0 0 1-3.461229 2.495985 11.16368 11.16368 0 0 1-3.773226 0.974994c-2.983481 0.350998-5.820714 0.458247-8.657946 0.458247z m-30.47831-34.817033c10.130187 7.97545 22.278611 12.957669 36.737771 12.158174a135.699654 135.699654 0 0 1-36.737771-12.158174z m-363.672732-19.19763c-24.940344 0-53.624666-5.303967-81.899489-15.492654-33.325292-12.041175-51.411429-21.293867-58.753134-25.427841-10.442185 1.511241-34.007788 3.695227-47.316455-4.87497a11.21243 11.21243 0 1 1 12.089925-18.885632c6.142462 3.899976 24.774595 2.924982 35.421529 0.974994h0.06825a11.17343 11.17343 0 0 1 8.102199 1.66724c0.126749 0.078 16.301898 10.393435 58.012138 25.418091 44.84972 16.184899 82.269987 16.282398 102.286612 10.968682 10.724933-2.846982 18.856382-8.375198 22.317611-15.170906a12.88942 12.88942 0 0 0 0.799495-10.871182c-2.681233-6.922457-4.553222-8.628696-5.723214-9.311192-2.466735-1.433241-7.858451-1.784239-13.328167-1.949988-7.926701-0.233999-9.281942 4.455722-9.291692 4.504472a11.215355 11.215355 0 0 1-21.654615-5.849963c2.037737-7.556203 11.26118-21.674115 31.628803-21.079369 20.143374 0.614246 31.199805 4.601971 39.272755 25.574091a35.363029 35.363029 0 0 1-1.725739 29.142568c-6.44471 12.674921-19.421879 22.122612-36.552523 26.675834a132.774672 132.774672 0 0 1-33.725039 3.987725zM198.694023 551.068396c-0.06825-2.135237 9.116193-16.438397 14.810158-23.078106 16.574897-19.324379 40.16-31.277805 70.47256-35.733527 9.164943-1.355242 15.697402-1.55999 33.149794-1.062743 11.972925 0.341248 23.399854 0.896994 25.476591 1.238242 4.387473 0.721496 4.87497 0.253498 11.963175-10.861432 6.103462-9.61344 14.624909-18.271386 21.449866-21.722865 5.411216-2.749483 14.039912-4.192474 18.417635-3.10048 6.776208 1.696489 12.76267 10.568934 12.81142 18.944131s-8.472697 17.813139-21.293867 23.672853c-7.799951 3.558728-18.173887 3.636727-33.344792 0.243748-18.524884-4.143724-28.001825-5.021219-47.540703-4.436222-18.524884 0.565496-25.905588 1.735489-40.0625 6.39596-24.530847 8.07295-47.443204 25.067094-64.027851 47.491954-1.238242 1.67699-2.261986 2.573984-2.281486 1.998737z" p-id="5179"></path><path d="M198.957271 562.505075a11.748677 11.748677 0 0 1-3.539227-0.565496 11.378179 11.378179 0 0 1-7.936451-10.529935c-0.107249-3.431979 0.974994-6.756708 7.019956-16.233649a140.516124 140.516124 0 0 1 10.500685-14.468909c18.359136-21.371867 44.381723-34.670784 77.346267-39.516504 9.808439-1.452741 17.042894-1.696489 35.099781-1.179743 0.789745 0 16.721146 0.477747 24.0921 1.072494 1.111493-1.64774 2.505734-3.831726 3.558728-5.498966 7.273455-11.456179 17.179393-21.313367 25.856839-25.71059 6.746958-3.422229 18.232386-5.976713 26.217586-3.968225 11.699927 2.924982 21.215868 16.282398 21.284118 29.766565 0.0585 13.045419-10.627434 26.032338-27.884827 33.910288-10.208186 4.660471-22.678359 4.962719-40.442747 0.974994s-26.042088-4.73847-44.752221-4.172974c-17.549891 0.536247-23.750852 1.511241-36.90352 5.849964-22.42486 7.390454-43.23123 22.844108-58.499635 43.513978-3.324729 4.484972-7.019956 6.756708-11.017432 6.756708z m10.939432-11.797426z m-18.271386-7.887701z m170.838435-52.727671c8.501947 1.325992 14.624909 0.974994 18.827132-0.974994 10.334936-4.718971 14.780908-11.15393 14.771158-13.406167 0-3.685477-2.856732-7.526953-4.319223-8.121699a24.443098 24.443098 0 0 0-10.617684 2.213236c-4.260723 2.154737-11.485428 8.940694-17.062393 17.72539zM175.235669 664.869687a25.856839 25.856839 0 0 1-4.436222-0.838495c0.107249-0.292498 6.288711-5.284467 10.578684-8.550697 37.303267-28.333323 79.627753-44.264724 121.415993-45.707715l3.802476-0.126749-4.533722 0.750745c-26.324836 4.348473-48.242699 10.598184-68.90282 19.626628-4.319223 1.891488-15.541403 7.624452-19.753377 10.100937a145.322844 145.322844 0 0 0-29.132818 22.103112c-2.505734 2.534984-3.470978 3.353979-3.899976 3.334479s-2.622734-0.321748-5.099218-0.692245z m41.466492 13.747414c1.091993-0.896994 5.986463-4.153474 8.336198-5.537966 13.552415-7.99495 29.776314-13.367167 47.413954-15.707152a131.136682 131.136682 0 0 1 17.939888-1.316241 179.905878 179.905878 0 0 1 34.817033 2.632483l4.182724 0.701996-12.79192 0.155999c-16.0289 0.204749-24.1311 0.701996-36.601272 2.252236-21.176868 2.642234-40.315999 7.9462-51.440679 14.254411a18.427385 18.427385 0 0 1-4.036475 1.65749 72.14955 72.14955 0 0 1-8.0242 1.54049c-0.516747 0-0.506997-0.0585 0.204749-0.643496z m101.02887 39.633503a239.848504 239.848504 0 0 0-38.229512-7.946201c-9.54519-1.072493-22.064112-1.189493-29.249817-0.263248a19.607128 19.607128 0 0 1-7.214955 0c-5.303967-0.662996-12.314173-2.193736-12.314174-2.681233 0-0.233999 2.759233-1.052993 6.40571-1.949988q6.620209-1.423491 13.347667-2.193736a181.865616 181.865616 0 0 1 21.547366 0.009749 123.161232 123.161232 0 0 1 42.158737 12.060675c5.196718 2.525234 7.799951 3.948725 7.214955 3.899976q-1.852488-0.428997-3.665977-0.974994z" p-id="5180"></path><path d="M320.890011 730.457528l-1.998738-0.272999c-1.472241-0.341248-2.924982-0.740995-4.397222-1.199242a227.456332 227.456332 0 0 0-36.240524-7.536703c-8.618946-0.974994-20.270124-1.091993-26.519835-0.282748a30.098062 30.098062 0 0 1-10.061937 0c-2.788483-0.350998-6.200961-0.974994-9.125943-1.569741-3.899976-0.848245-12.996669-2.827482-12.996669-12.226423 0-3.899976 1.706239-9.038194 9.847439-11.465929 1.413741-0.419247 3.20773-0.887244 5.216217-1.364991h0.204749c4.73847-0.974994 9.59394-1.813489 14.42016-2.369236a184.41035 184.41035 0 0 1 24.04335 0 134.003164 134.003164 0 0 1 45.824714 13.113669c2.486234 1.208992 4.455722 2.193736 5.849964 2.924981 0.867745 0.467997 1.520991 0.838495 2.066987 1.179743a11.329429 11.329429 0 0 1 5.362466 12.674921z m-104.441349-39.984501h-0.107249a11.446429 11.446429 0 0 1-10.793183-7.604953c-0.604496-1.745239-2.105987-7.799951 4.026725-12.889419 1.803739-1.481991 7.361204-5.128468 9.749939-6.542209 14.780908-8.716446 32.633046-14.624909 51.674678-17.159893a141.14012 141.14012 0 0 1 19.178131-1.413742 191.537556 191.537556 0 0 1 36.86452 2.788483l4.182724 0.701996-1.67699 22.249361-12.79192 0.155999c-15.668152 0.194999-23.273105 0.662996-35.34353 2.164486-19.451129 2.427735-37.566516 7.361204-47.296955 12.87967a29.415567 29.415567 0 0 1-6.824957 2.788483c-0.116999 0.00975-7.663452 1.881738-10.841933 1.881738z m-0.867744-22.42486z m-35.207031 8.726195h-0.604496c-0.409497 0-1.208992-0.06825-6.191211-0.789745-5.362467-0.770245-9.59394-1.384491-12.450673-6.191211l-0.877494-9.63294c1.043243-2.827482 1.394241-3.773226 14.312911-13.581665 39.321505-29.864064 83.517979-46.45846 127.811952-47.979451l3.802477-0.126749 2.203486 22.268861-4.533722 0.750745c-25.349842 4.202224-46.43896 10.188686-66.231337 18.836883-3.968225 1.735489-14.722408 7.234455-18.524884 9.49644A135.173157 135.173157 0 0 0 192.220063 670.076154c-3.373479 3.451478-6.571459 6.698208-11.846176 6.698208zM699.811648 978.086483s0.692246-0.311998 1.491741-0.643496q22.717358-9.350192 44.459722-20.86487a502.424117 502.424117 0 0 0 110.174313-79.198756c0.974994-0.916494 1.754989-1.64774 1.764739-1.628239a88.860946 88.860946 0 0 0 13.396417 16.350648c0.721496 0.672746 1.316242 1.247992 1.316242 1.277242s-9.964438 6.932207-15.102656 10.266686c-43.474979 28.274824-95.549404 53.068919-153.698042 73.192793-3.21748 1.111493-3.899976 1.345492-3.831726 1.247992z" p-id="5181"></path><path d="M699.684899 989.289163a11.22218 11.22218 0 0 1-9.457441-5.342966l0.770245-5.849964h-2.398485l3.14923-7.799951a13.581665 13.581665 0 0 1 5.323467-3.23698c14.722408-6.054712 29.347317-12.918669 43.445729-20.387123a491.240936 491.240936 0 0 0 107.727078-77.434017c2.398485-2.300986 5.752464-5.518466 11.387929-4.543472l7.565953 5.050469a78.457761 78.457761 0 0 0 11.534178 14.127662c1.949988 1.813489 4.87497 4.543472 4.87497 9.506191 0 5.849964-4.026725 8.706696-6.42521 10.393435-1.043243 0.731245-2.495984 1.725739-4.104725 2.817732-2.768983 1.881738-6.766458 4.572721-9.671939 6.46421-44.371973 28.86957-96.904646 53.897664-156.145277 74.392036l-3.207729 1.091993a14.195911 14.195911 0 0 1-4.367973 0.750745z m0.126749-11.20268zM668.845841 999.4096l5.352717-1.59899c0.243748-0.06825 0.360748-0.097499 0.370497-0.068249s0.272998 1.62824 0.272999 1.657489-1.355242 0-3.012732 0h-2.973731z" p-id="5182"></path><path d="M672.560568 1010.63178h-2.924982c-10.724933-0.06825-11.904676-9.61344-11.953425-10.022937l5.849963-0.633746v-0.243749l1.832989-0.321748h0.974994l-0.078-0.146249 2.447235-0.428997-1.784239-5.898713 2.096237 0.857994 0.097499-4.016975a11.26118 11.26118 0 0 0-2.525234 2.076737l-0.974994-3.16873 5.420966-1.61849a11.27093 11.27093 0 0 1 13.981413 6.581209l0.370498 1.130993a24.920845 24.920845 0 0 1 0.672746 4.631221l-3.29548 7.936451c-3.19798 3.100481-6.171712 3.28573-10.208186 3.285729z m-5.586715-9.915688l-2.866482 1.130993a11.124681 11.124681 0 0 0 7.000456 6.542209z m9.018693 7.302705z m-11.699927-12.372673l-2.612983-4.87497 4.299723 1.764739a11.29043 11.29043 0 0 0-1.725739 3.110231zM668.689842 999.4291h0.087749-0.155999z" p-id="5183"></path><path d="M668.787341 1010.66103h-0.155999l-1.169992-9.476941-5.420966 7.185705 5.420966-7.195455-0.214499-1.725739h-9.67194l9.67194-0.0195-1.082243-8.804195-0.565497-1.969488 0.331498 0.0585-0.0195-0.146249 0.039 0.146249 2.681233 0.487497v-0.965244h0.155999v0.994494l6.737208 1.228492 4.475223 8.969944-8.765196 8.774946 0.555747 1.998737-0.438748 0.116999-0.448497-1.784239-2.115737 2.125487zM917.284042 831.14515c-3.461228-2.856732-5.469716-4.962719-4.972469-5.225968a12.567672 12.567672 0 0 1 2.437485-0.487497q1.384491-0.165749 2.749482-0.428997c0.575246-0.136499 1.218742 0.360748 2.846983 2.203486l2.086487 2.378985-1.394242 1.589241a11.534178 11.534178 0 0 1-1.57949 1.59899 14.888157 14.888157 0 0 1-2.174236-1.62824z" p-id="5184"></path><path d="M919.419278 843.98582c-4.182724 0-6.971207-2.310736-9.252692-4.202224-4.572721-3.763477-9.749939-8.0437-9.057693-14.888157a11.329429 11.329429 0 0 1 5.996212-8.891945 17.159893 17.159893 0 0 1 6.230211-1.696489h0.136499c0.584996-0.06825 1.169993-0.155999 1.73549-0.272999 7.136955-1.55024 11.631677 3.568478 13.571915 5.771964l2.096237 2.398485v14.790658l-1.394241 1.58924c-1.949988 2.144987-4.445972 5.021219-9.106444 5.381967q-0.516747 0.0195-0.955494 0.0195z m-3.266229-7.916951l0.750745 0.087749 0.594746-0.282748a11.573178 11.573178 0 0 0 2.076737-1.403991l-0.097499-1.696489 0.165749 1.637989a11.027181 11.027181 0 0 0 3.061481-12.382422 11.25143 11.25143 0 0 0-5.849964-0.175499l0.623997 3.13948-0.760496-3.110231a11.095431 11.095431 0 0 0-2.174236 0.789746l7.868201 6.902956-6.41546 5.625715z m-0.896995-0.175499c0.243748 0.0585 0.497247 0.107249 0.760496 0.155999l-0.08775-0.740995z m4.553222 0.078l0.360748-0.078z m5.732964-12.606672z" p-id="5185"></path><path d="M936.198924 842.123581c-4.085225-1.706239-11.407429-5.469716-11.699927-6.035212a12.596921 12.596921 0 0 1 2.271736-2.700733 4.026725 4.026725 0 0 1 1.189492 0.838494 74.684534 74.684534 0 0 0 9.749939 6.824958l1.881739 1.111493c0.087749 0.06825-0.740995 0.974994-0.877495 0.974994s-1.228492-0.487497-2.515484-1.013994zM933.069193 855.324999l1.881739-1.501491c0.974994-0.789745 2.564234-2.096237 3.490478-2.924981l1.676989-1.462491 1.121243 0.350997c1.754989 0.545997 1.706239 0.497247 0.974994 0.916495-0.916494 0.555747-8.950444 4.670221-9.125943 4.670221s-0.116999 0-0.077999-0.06825z" p-id="5186"></path><path d="M933.069193 866.644678L922.500259 859.224975a11.29043 11.29043 0 0 1 1.433241-10.442185c-7.097956-3.646477-8.375198-5.771964-9.077193-6.922457l0.175499-0.107249-1.306492-9.008944c0.974994-3.24673 5.001719-8.209449 8.687196-9.749939l0.389997-0.155999c4.241224-1.58924 8.433697-0.623996 12.460423 2.856732a64.252099 64.252099 0 0 0 8.063199 5.635465l0.838495 0.497246a18.866132 18.866132 0 0 1 2.135237 1.345492l2.086487 7.546453a10.841932 10.841932 0 0 1 5.440466 8.219199 11.358679 11.358679 0 0 1-5.606215 11.270929l-0.155999 0.0975c-0.253498 0.155999-1.043243 0.623996-5.537966 2.924982-5.450216 2.817732-6.532459 3.412479-9.457441 3.412478z m0-11.25143l3.831726 4.514222z m-1.423491-2.993231a11.20268 11.20268 0 0 0 4.923719 7.409954l-3.509978-4.387473v-2.437484l-1.189492-0.497247z m3.441729-19.860626a9.213693 9.213693 0 0 0-5.966963 5.518466l5.703714 2.300985a11.20268 11.20268 0 0 0 0.263249-7.838951z m7.409953 0.078z m-2.661733-0.623997z m-6.035212-2.057237l0.233998 0.370498z" p-id="5187"></path><path d="M946.641109 845.643309l-0.672746-0.165749-1.423491-0.370497 0.155999-0.155999 0.155999-0.155999 0.477747 0.214498 1.442991 0.653246h-0.126749z" p-id="5188"></path><path d="M946.641109 856.855739v-4.77747l-1.316242 4.709221a12.119174 12.119174 0 0 1-1.491741-0.292498l-0.467997-0.117c-0.662996-0.165749-1.257742-0.321748-1.842738-0.487497l-0.10725-0.350997-0.799495-0.360748-0.419247-0.185249 0.623996-1.374741L936.042925 837.775108c0.175499-0.204749 0.448497-0.497247 0.779995-0.838494l0.087749-0.08775 0.0585-0.04875 9.496441-1.715989 0.107249-0.701995v0.682495l0.740995-0.136499 0.185249-0.662996 1.072494 0.282748 0.360747 0.08775 0.477747-0.08775 0.477747 0.214499 1.345492 0.604496-3.470978 12.372673 1.091993 1.091993-1.130993-0.974994-0.185249 0.662996z m2.603233-22.112862l-0.477747 4.026725 1.189493-3.831726z m-1.033493-0.185249v0.282749l0.809245-0.146249q-0.409497-0.097499-0.799495-0.14625z m4.358223 18.368886l0.204748-0.214499zM931.626202 856.299993l0.799495-0.565497v0.1365l-0.253498 0.116999-0.623996 0.282748z" p-id="5189"></path><path d="M931.626202 867.492923l-1.784239-8.940694-5.245467 5.245467-1.51124-1.871988-0.253499-0.409498 6.824958-4.104724-1.062744-5.323467-3.548978-4.874969 0.974994-0.721496 1.179743 0.253498-0.331498-0.614246a13.347667 13.347667 0 0 1 1.66724-0.770245l0.682495 1.813489 2.408235 0.516747 7.409954 1.58924 1.403991-1.403992-0.263248 1.64774 1.423491 0.302248 0.282748-0.185249-0.282748 0.185249 0.458247 0.0975-2.164486 1.345491-1.949988 12.304423 0.926244 1.325992-0.584996 0.419248-0.653246 0.214498-0.04875 0.331498-0.194999 0.0975 0.185249-0.0975-0.243748 0.10725q-0.682496 0.341248-1.384492 0.633746l-0.194998-0.477747z m5.713465-1.511241l-0.887245 0.389998a9.223442 9.223442 0 0 0 0.887245-0.399747z m-10.013188-20.055624l-0.136499 0.058499 0.243748 0.487497zM965.536491 726.352803l-0.311998-0.282748 0.058499-0.107249v-0.10725l0.263249 0.380248 0.263248 0.389998z" p-id="5190"></path><path d="M958.516535 735.108249l-0.399748-0.350998c-0.243748-0.214499-0.477747-0.428997-0.701996-0.653246l-0.282748-1.67699-0.614246 0.409498-0.370498-0.545997 0.857995-0.604496-1.67699-9.876688-0.399747-0.165749v-0.10725h0.302248l-0.077999-0.458247 0.058499-0.107249 0.974994 0.467997 15.024656-1.63799 1.64774-1.949988 0.311998 0.272999-1.355241 1.56974 2.681233-0.292498 0.672746 0.974993-7.351454 6.49346 7.799951 3.26623-0.419247 0.916494-7.799952-3.899976z m14.42991-17.169643l-1.59899 1.862238 1.686739-1.735489zM944.447372 788.323417a38.200262 38.200262 0 0 1-7.175955-4.319223 27.767827 27.767827 0 0 1-2.612984-2.144987c0-0.06825 1.696489-2.788483 1.832989-2.924982s0.185249 0 0.740995 0.506997a65.324593 65.324593 0 0 0 10.549435 7.634203l0.555746 0.321748-1.442991 0.653245c-0.789745 0.360748-1.481991 0.653246-1.54049 0.653246a6.932207 6.932207 0 0 1-0.906745-0.380247z" p-id="5191"></path><path d="M945.344367 799.916094a12.596921 12.596921 0 0 1-5.635465-1.423491 49.578441 49.578441 0 0 1-9.242942-5.576965c-3.25648-2.437485-7.029706-5.274717-7.029707-11.066181 0-3.26623 1.247992-5.264967 2.573984-7.380704a18.027638 18.027638 0 0 1 2.398485-3.334479l0.194999 0.185249 7.146706-3.607478a11.816926 11.816926 0 0 1 8.930944 3.344229 54.599659 54.599659 0 0 0 8.667696 6.269211l0.584996 0.341248-0.974994 19.928876-1.442991 0.653246a13.854664 13.854664 0 0 1-6.171711 1.667239z m-1.442991-22.32736l1.949988 4.348473v-0.08775a11.095431 11.095431 0 0 0-0.877495-4.358223c-0.370498 0.0195-0.731245 0.04875-1.072493 0.0975z m5.479466 0.672746zM955.776802 791.141149q-1.082243 0-2.144987-0.175499l0.497247-0.233998 0.506997-0.233999 0.321748 0.136499 1.208992 0.497247h0.10725-0.487497z" p-id="5192"></path><path d="M956.274049 802.382829h-1.062744c-0.974994 0-1.949988-0.126749-2.924982-0.243748l-0.116999-0.731246-0.077999 0.204749h-0.10725l-1.394241-0.575247-0.253498-0.107249 1.257742-3.12973-2.788483-16.974644 1.043244-0.497247 5.089468-0.117v-0.399747c0.438747 0.04875 0.877495 0.087749 1.306492 0.107249h0.536246v0.214499l2.135237-0.04875 0.526497 0.224249 0.877494 0.360747 0.12675 0.04875-3.041981 15.599903 1.949987 4.211974-0.974994 0.458247-1.384491-2.924982z" p-id="5193"></path><path d="M976.417423 1023.998947H47.413967a47.423704 47.423704 0 0 1-47.413955-47.374955V47.620536A47.423704 47.423704 0 0 1 47.413967 0.255331h929.003456a47.423704 47.423704 0 0 1 47.326205 47.365205v929.003456a47.423704 47.423704 0 0 1-47.326205 47.374955zM47.413967 29.505149a18.134887 18.134887 0 0 0-18.164137 18.115387v929.003456A18.134887 18.134887 0 0 0 47.413967 994.749129h929.003456a18.134887 18.134887 0 0 0 18.076387-18.125137V47.620536A18.134887 18.134887 0 0 0 976.417423 29.505149z" p-id="5194"></path><path d="M511.87182 1023.998947A511.998557 511.998557 0 0 1 312.670812 40.49333a511.999532 511.999532 0 0 1 398.499515 943.277368A508.683578 508.683578 0 0 1 511.87182 1023.998947z m0-994.493798c-266.11484 0-482.62199 216.50715-482.62199 482.62199s216.4974 482.62199 482.62199 482.62199 482.62199-216.4974 482.62199-482.62199-216.44865-482.62199-482.62199-482.62199z" p-id="5195"></path><path d="M27.104843 183.037442l0.409498-153.171545L31.521566 26.580167c3.899976-3.13948 8.872445-3.24673 155.882027-3.24673h151.894303l-21.937363 10.939432C196.685536 94.166746 100.170888 190.379146 39.077769 311.61964l-12.382423 24.579596z" p-id="5196"></path><path d="M44.118487 344.974182l-36.91327-8.823695 0.818995-306.33334 7.224705-15.102656 4.007225-3.24673c7.448954-6.044962 14.936907-6.698208 36.133275-7.136955 20.591872-0.428997 59.474629-0.448497 132.023926-0.448497h151.884553l8.667696 36.962019-21.937363 10.890682C208.980209 109.834898 115.78054 202.732319 56.49116 320.394585z m2.866482-301.399871l-0.575246 214.498663A633.950796 633.950796 0 0 1 261.230133 42.882066h-73.81679c-78.857508 0-123.014983 0-140.428374 0.692245z m-19.870376 139.424131zM31.736064 989.961909c-3.12973-3.451478-3.24673-8.823695-3.665977-156.671773l-0.428997-153.074045 9.944938 20.377373c59.143131 121.211244 158.124514 220.933622 279.706255 281.773243l22.005613 11.017431-152.157551 0.06825-152.167301 0.068249z" p-id="5197"></path><path d="M34.982794 1013.040015l-14.507909-6.41546-3.23698-3.578227c-6.932207-7.653702-7.400204-16.292148-7.887701-36.815771-0.487497-20.78687-0.614246-59.864627-0.818995-132.881921l-0.428997-153.074045 37.049769-8.609197 9.944938 20.377373c57.163894 117.155269 153.366544 214.079415 270.91181 272.920298l22.064113 11.007682-8.774946 36.942519z m12.382423-253.898166l0.204749 74.099538c0.224249 78.58451 0.350998 122.917483 1.062743 140.798872l213.24092-0.08775A644.022484 644.022484 0 0 1 47.365217 759.132099zM723.718499 985.730436c115.683029-59.630628 205.879716-150.938809 264.437851-267.665081l12.080174-24.0726-0.428997 150.012565-0.428997 150.012564-3.899976 3.16873c-3.792726 3.071231-8.638446 3.17848-151.952802 3.139481H695.502175z" p-id="5198"></path><path d="M875.096055 1019.835723H695.482675l-8.930944-36.83527 28.274823-14.55666c112.748297-58.119388 198.89876-145.274094 255.945654-259.075384l12.021675-24.121349 36.93277 8.774945-0.857995 300.034879-7.244205 15.112405-3.899975 3.168731c-7.702452 6.249711-15.950901 6.659208-35.509279 7.068706-16.877145 0.360748-46.263461 0.428997-97.119144 0.428997z m-102.754609-38.999757h71.174556c76.264024 0 119.193007 0 136.401649-0.623996l0.594746-208.005203a615.094414 615.094414 0 0 1-208.170951 208.648699zM988.712096 315.909613c-60.99562-122.741985-156.272025-218.866635-278.312014-280.798249L683.948497 21.705198h153.98079c150.207563 0 154.049039 0.087749 157.315269 3.344229a19.811876 19.811876 0 0 1 4.348472 9.018694c0.555747 3.119981 0.799495 72.754046 0.526497 154.741285l-0.487497 149.06682z" p-id="5199"></path><path d="M982.169887 346.563422l-10.919932-21.966613c-58.792133-118.315512-152.040552-212.392675-269.673568-272.023304l-26.451585-13.474416 8.774945-36.89377h154.02954c74.099538 0 113.78179 0 134.178663 0.458247 20.572372 0.438747 29.249818 0.916494 36.91327 8.589697 5.664715 5.664715 8.774945 13.981413 9.749939 19.392629 0.380248 2.144987 0.721496 4.007225 0.877494 51.157931 0.097499 29.415567 0.078 67.440329-0.048749 107.073832l-0.487497 149.06682zM761.606763 41.205076a636.61253 636.61253 0 0 1 218.778885 218.944635l0.233999-71.408555c0.243748-71.837552 0.078-128.367699-0.253499-146.834084-17.159893-0.701996-61.921864-0.701996-142.436861-0.701996z m218.583886-5.216217z" p-id="5200"></path></svg>